<svg xmlns="http://www.w3.org/2000/svg" width="18" height="18" viewBox="0 0 18 18"><defs><style>.a{opacity:0.9;}.b{fill:#fff;}.c{fill:none;}</style></defs><g class="a" transform="translate(-562 -1186)"><g transform="translate(564.285 1188.237)"><path class="b" d="M3.331,4.461a.35.35,0,0,1-.349-.349V1.443H.349A.347.347,0,0,1,0,1.1V.344A.347.347,0,0,1,.349,0H3.833a.584.584,0,0,1,.42.174A.6.6,0,0,1,4.43.6V4.112a.35.35,0,0,1-.349.349Z" transform="translate(13.43 4.46) rotate(180)"/><path class="b" d="M3.331,0a.35.35,0,0,0-.348.348V3.017H.348A.347.347,0,0,0,0,3.362v.755a.346.346,0,0,0,.348.344H3.833a.583.583,0,0,0,.42-.174.6.6,0,0,0,.177-.423V.348A.35.35,0,0,0,4.081,0Z" transform="translate(13.43 13.46) rotate(180)"/><path class="b" d="M3.331,0a.35.35,0,0,0-.348.348V3.017H.348A.347.347,0,0,0,0,3.362v.755a.346.346,0,0,0,.348.344H3.833a.583.583,0,0,0,.42-.174.6.6,0,0,0,.177-.423V.348A.35.35,0,0,0,4.081,0Z"/><path class="b" d="M3.331,4.46a.35.35,0,0,1-.348-.348V1.444H.348A.347.347,0,0,1,0,1.1V.344A.346.346,0,0,1,.348,0H3.833a.583.583,0,0,1,.42.174A.6.6,0,0,1,4.43.6V4.112a.35.35,0,0,1-.348.348Z" transform="translate(0 9)"/></g><rect class="c" width="18" height="18" transform="translate(562 1186)"/></g></svg>