<svg xmlns="http://www.w3.org/2000/svg" width="16" height="16" viewBox="0 0 16 16"><defs><style>.a{fill:#eff2f6;}.b{fill:none;}</style></defs><g transform="translate(1.252 1.21)"><path class="a" d="M-441.96,101.537h-2.87l2.183,1.487a5.716,5.716,0,0,1-3.16,2.365,5.715,5.715,0,0,1-7.109-3.853h-1.269a6.986,6.986,0,0,0,2.422,3.8,6.867,6.867,0,0,0,4.327,1.514,6.859,6.859,0,0,0,4.321-1.514,6.987,6.987,0,0,0,2.422-3.8h-1.269Z" transform="translate(454.184 -93.359)"/><path class="a" d="M-454.076,12.64h4.05l-2.191-1.493a5.717,5.717,0,0,1,3.161-2.364,5.714,5.714,0,0,1,7.107,3.856h1.269a6.977,6.977,0,0,0-2.422-3.8,6.932,6.932,0,0,0-8.65,0,6.982,6.982,0,0,0-2.422,3.8h.1Z" transform="translate(454.176 -7.325)"/><circle class="a" cx="1.716" cy="1.716" r="1.716" transform="translate(5.03 5.03)"/></g><rect class="b" width="16" height="16"/></svg>