<svg xmlns="http://www.w3.org/2000/svg" width="16" height="16" viewBox="0 0 16 16"><defs><style>.a{fill:none;}.b{fill:#b5d8ee;}</style></defs><g transform="translate(-739 -256)"><rect class="a" width="16" height="16" transform="translate(739 256)"/><path class="b" d="M94.135,8.773a4.448,4.448,0,0,0,0-6.319,4.528,4.528,0,0,0-6.375,0,4.448,4.448,0,0,0,0,6.319l3.188,3.169Zm-7.169.8a5.575,5.575,0,0,1,0-7.917,5.655,5.655,0,0,1,7.963,0,5.575,5.575,0,0,1,0,7.917L90.947,13.53,86.965,9.571Zm3.982-2.8a1.126,1.126,0,1,0-1.126-1.126A1.126,1.126,0,0,0,90.947,6.773Zm0,1.126A2.252,2.252,0,1,1,93.2,5.647,2.252,2.252,0,0,1,90.947,7.9Z" transform="translate(656.053 257.227)"/></g></svg>