<svg xmlns="http://www.w3.org/2000/svg" width="16" height="16" viewBox="0 0 16 16"><defs><style>.a{fill:none;}.b{fill:#b5d8ee;}</style></defs><rect class="a" width="16" height="16"/><path class="b" d="M6.251,12.5A6.239,6.239,0,0,1,.035,6.249H1A5.271,5.271,0,0,0,2.538,9.986a5.2,5.2,0,0,0,3.713,1.55A5.275,5.275,0,0,0,10.76,8.962H8.914V8H12a.5.5,0,0,1,.5.5V11.6h-.958V9.528A6.175,6.175,0,0,1,6.251,12.5Zm6.214-6.249H11.5A5.271,5.271,0,0,0,9.963,2.512,5.2,5.2,0,0,0,6.251.961a5.278,5.278,0,0,0-4.51,2.574H3.587V4.5H.5A.5.5,0,0,1,0,4V.893H.959V2.97A6.177,6.177,0,0,1,6.251,0a6.239,6.239,0,0,1,6.214,6.248Z" transform="translate(1.75 1.75)"/></svg>