<svg xmlns="http://www.w3.org/2000/svg" width="16" height="16" viewBox="0 0 16 16"><defs><style>.a{fill:none;}.b{fill:#b5d8ee;}</style></defs><g transform="translate(-763 -256)"><rect class="a" width="16" height="16" transform="translate(763 256)"/><g transform="translate(764.964 258)"><path class="b" d="M135.338,284.711c-1.646,0-2.924,1-4.5,2.624,1.353,1.383,2.489,2.624,4.5,2.624s3.483-1.563,4.5-2.587c-1.038-1.2-2.516-2.647-4.5-2.647m0,4.5a1.876,1.876,0,1,1,1.8-1.874,1.837,1.837,0,0,1-1.8,1.874" transform="translate(-129.306 -281.374)"/><path class="b" d="M6.032,5.3a.664.664,0,0,1,.154-.427.84.84,0,0,0-.154,0,1.091,1.091,0,1,0,1.05,1.091,1.361,1.361,0,0,0,0-.142A.637.637,0,0,1,6.04,5.309M9.26,0V1.125h1.687V2.812h1.125V0ZM0,2.812H1.125V1.125H2.812V0H0ZM1.125,9.189H0V12H2.812V10.876H1.125Zm9.822,1.687H9.26V12h2.812V9.189H10.947v1.687Z"/></g></g></svg>