<svg xmlns="http://www.w3.org/2000/svg" width="16" height="16" viewBox="0 0 16 16"><defs><style>.a{fill:#eaeaea;}.b{fill:none;}</style></defs><path class="a" d="M8.37,12a.311.311,0,0,1-.309-.309v-.668a.311.311,0,0,1,.309-.309h2.344V8.344a.309.309,0,0,1,.31-.308h.669A.309.309,0,0,1,12,8.344v3.126a.533.533,0,0,1-.531.531ZM.53,12A.53.53,0,0,1,0,11.469V8.344a.308.308,0,0,1,.3-.308H.973a.308.308,0,0,1,.309.308v2.371H3.627a.308.308,0,0,1,.308.309v.668A.308.308,0,0,1,3.627,12ZM11.023,3.962a.307.307,0,0,1-.31-.306V1.284H8.37A.31.31,0,0,1,8.061.975V.306A.307.307,0,0,1,8.37,0h3.1a.524.524,0,0,1,.375.157A.53.53,0,0,1,12,.531V3.656a.307.307,0,0,1-.308.306ZM.3,3.962A.305.305,0,0,1,0,3.656V.531A.5.5,0,0,1,.156.157.516.516,0,0,1,.53,0h3.1a.306.306,0,0,1,.308.306V.975a.31.31,0,0,1-.308.309H1.282V3.656a.306.306,0,0,1-.309.306Z" transform="translate(2 2)"/><rect class="b" width="16" height="16"/></svg>