<svg xmlns="http://www.w3.org/2000/svg" width="16" height="16" viewBox="0 0 16 16"><defs><style>.a{fill:none;}.b{fill:#eff2f6;}</style></defs><g transform="translate(-705 -52)"><rect class="a" width="16" height="16" transform="translate(705 52)"/><g transform="translate(706.333 0.052)"><path class="b" d="M12.835,53.984H.5a.5.5,0,0,0-.5.5V65.414a.5.5,0,0,0,.5.5H12.835a.5.5,0,0,0,.5-.5V54.484A.5.5,0,0,0,12.835,53.984ZM1.509,57.177l1.932-2.36H4.626l-1.884,2.36Zm4.184-2.36H7.1l-1.884,2.36H3.809Zm2.477,0h1.3l-1.884,2.36h-1.3Zm2.365,0h1.3l-1.884,2.36H8.65Zm1.967.5v1.862H11.015Zm-10.138-.5L.833,56.686V54.817ZM.833,65.08V58.011H12.5V65.08Z" transform="translate(-0.001 -0.001)"/><path class="b" d="M.5,53.934H12.834a.551.551,0,0,1,.549.549v10.93a.55.55,0,0,1-.549.549H.5a.55.55,0,0,1-.549-.549V54.483A.551.551,0,0,1,.5,53.934Zm12.335,11.93a.452.452,0,0,0,.451-.451V54.483a.453.453,0,0,0-.451-.451H.5a.453.453,0,0,0-.451.451V65.413a.452.452,0,0,0,.451.451ZM.783,54.767H2.466L.783,56.822Zm1.476.1H.882v1.682Zm1.158-.1h1.31L2.765,57.225H1.4Zm1.106.1H3.463L1.611,57.127H2.718Zm1.145-.1H7.2L5.242,57.225H3.706Zm1.333.1H5.715L3.91,57.127H5.195Zm1.145-.1H9.569L7.607,57.225H6.183Zm1.22.1H8.193L6.386,57.127H7.559Zm1.145-.1h1.424L9.972,57.225H8.547Zm1.22.1H10.557L8.751,57.127H9.924Zm.82.309v2.051H10.912Zm-.1,1.953V55.455l-1.335,1.672ZM.783,57.961H12.55v7.167H.783Zm11.668.1H.882V65.03h11.57Z" transform="translate(0 0)"/><path class="b" d="M408.485,483.168a.226.226,0,0,0-.36.187v3.332a.226.226,0,0,0,.36.186l2.252-1.666a.232.232,0,0,0,0-.373Z" transform="translate(-402.811 -423.552)"/><path class="b" d="M408.351,483.074h0a.274.274,0,0,1,.162.053l2.253,1.666a.282.282,0,0,1,0,.452l-2.253,1.666a.279.279,0,0,1-.289.022.274.274,0,0,1-.149-.249v-3.331a.273.273,0,0,1,.148-.248A.276.276,0,0,1,408.351,483.074Zm0,3.792a.176.176,0,0,0,.1-.034l2.252-1.666a.183.183,0,0,0,0-.294l-2.252-1.666a.18.18,0,0,0-.186-.014.176.176,0,0,0-.1.16v3.333a.177.177,0,0,0,.177.181Z" transform="translate(-402.811 -423.552)"/></g></g></svg>