<svg xmlns="http://www.w3.org/2000/svg" width="18" height="18" viewBox="0 0 18 18"><defs><style>.a{opacity:0.9;}.b{fill:none;}.c{fill:#fff;}</style></defs><g class="a" transform="translate(-147 -444)"><rect class="b" width="18" height="18" transform="translate(147 444)"/><path class="c" d="M7.251,14.5A7.238,7.238,0,0,1,.041,7.249H1.157a6.114,6.114,0,0,0,1.787,4.335,6.032,6.032,0,0,0,4.307,1.8,6.119,6.119,0,0,0,5.23-2.986H10.34V9.278h3.58a.581.581,0,0,1,.58.58v3.6H13.388V11.053A7.163,7.163,0,0,1,7.251,14.5Zm7.209-7.249H13.344a6.114,6.114,0,0,0-1.787-4.335,6.032,6.032,0,0,0-4.307-1.8A6.122,6.122,0,0,0,2.019,4.1H4.16V5.219H.58A.581.581,0,0,1,0,4.639v-3.6H1.112v2.41A7.165,7.165,0,0,1,7.251,0a7.237,7.237,0,0,1,7.209,7.248Z" transform="translate(148.75 445.75)"/></g></svg>