<svg xmlns="http://www.w3.org/2000/svg" width="16" height="16" viewBox="0 0 16 16"><defs><style>.a{fill:none;}.b{fill:#eff2f6;}</style></defs><rect class="a" width="16" height="16"/><path class="b" d="M11.8,10.087H.482A.475.475,0,0,1,0,9.62V1.843a.475.475,0,0,1,.482-.467H3.055L3.831.245A.568.568,0,0,1,4.3,0H7.982a.571.571,0,0,1,.472.245L9.23,1.376H11.8a.475.475,0,0,1,.481.467V9.62A.475.475,0,0,1,11.8,10.087ZM.945,2.293V9.17H11.339V2.293H8.724L7.779.917H4.5L3.56,2.293Zm5.2,5.96A2.8,2.8,0,0,1,3.307,5.5,2.8,2.8,0,0,1,6.142,2.751,2.8,2.8,0,0,1,8.977,5.5,2.8,2.8,0,0,1,6.142,8.253Zm0-4.585A1.865,1.865,0,0,0,4.252,5.5a1.891,1.891,0,0,0,3.779,0A1.865,1.865,0,0,0,6.142,3.668Z" transform="translate(1.857 2.957)"/></svg>