<svg xmlns="http://www.w3.org/2000/svg" width="16" height="16" viewBox="0 0 16 16"><defs><style>.a{fill:none;}.b{fill:#eff2f6;}</style></defs><rect class="a" width="16" height="16"/><path class="b" d="M13.724,12.087H.561A.561.561,0,0,1,0,11.527V2.208a.561.561,0,0,1,.561-.56H3.552l.9-1.355A.655.655,0,0,1,5,0H9.281A.658.658,0,0,1,9.83.294l.9,1.355h2.992a.56.56,0,0,1,.56.56v9.319A.56.56,0,0,1,13.724,12.087ZM1.1,2.747v8.241H13.185V2.747H10.144L9.046,1.1H5.238L4.14,2.747ZM7.142,9.889a3.3,3.3,0,1,1,3.3-3.3A3.3,3.3,0,0,1,7.142,9.889Zm0-5.494a2.2,2.2,0,1,0,2.2,2.2A2.2,2.2,0,0,0,7.142,4.395Z" transform="translate(0.857 1.957)"/></svg>