<svg xmlns="http://www.w3.org/2000/svg" width="18" height="18" viewBox="0 0 18 18"><defs><style>.a{opacity:0.9;}.b{fill:none;}.c{fill:#fff;}</style></defs><g class="a" transform="translate(-532 -445)"><rect class="b" width="18" height="18" transform="translate(532 445)"/><path class="c" d="M7.062,15.5h0L0,11.625V3.875L7.062,0l7.062,3.875v7.75L7.063,15.5Zm0-14.186h0L1.165,4.55v6.4l5.9,3.235,5.9-3.235V4.55l-5.9-3.235Zm0,9.88A3.444,3.444,0,1,1,10.557,7.75,3.474,3.474,0,0,1,7.062,11.194Zm0-5.74a2.3,2.3,0,1,0,2.33,2.3A2.316,2.316,0,0,0,7.062,5.454Z" transform="translate(533.938 446.25)"/></g></svg>