<svg xmlns="http://www.w3.org/2000/svg" width="20" height="20" viewBox="0 0 20 20">
  <defs>
    <style>
      .cls-1 {
        fill: #16aee0;
      }
    </style>
  </defs>
  <path id="提示" class="cls-1" d="M10,0A10,10,0,1,1,0,10,10,10,0,0,1,10,0Zm.807,9.156c.157-.923-.982-1.225-1.625-.826s-2.438,2.654-1.96,2.257,2.038-1.87,1.706-.729-1.142,4.013-1.36,4.783.88,1.342,1.614.918,2.285-2.438,1.963-2.244-1.95,1.743-1.722.94,1.226-4.176,1.383-5.1Zm-.226-3.442a.983.983,0,1,0,.913,1.018.983.983,0,0,0-.913-1.018Z"/>
</svg>
